# xmcd
#
# Track frame offsets: 
#        150
#        15484
#        38044
#        54124
#        73863
#        90529
#        104900
#        121101
#        138059
#        154036
#        173050
#        188400
#        205886
#        226378
#        241074
#        257799
#        272286
#        293896
#        312311
#        329888
#
# Disc length: 4740 seconds
#
# Revision: 1
# Processed by: cddbd v1.5.2PL0 Copyright (c) Steve Scherf et al.
# Submitted via: ExactAudioCopy v0.99pb5
#
DISCID=0f128214
DTITLE=Various Artist - 100 R&B Classics Original Anthems CD1
DYEAR=2009
DGENRE=R&B
TTITLE0=Flo Rida - Right Round (feat Kesha)
TTITLE1=T.I. -  Dead and Gone (feat Justin Timberlake)
TTITLE2=Alesha Dixon - Breathe Slow
TTITLE3=Jordin Sparks - No Air (feat Chris Brown)
TTITLE4=Usher - Love In This Club
TTITLE5=Kelly Rowland - Work (Freemasons Edit)
TTITLE6=Madcon - Beggin'
TTITLE7=Sean Kingston - Beautiful Girls
TTITLE8=Estelle - No Substitute Love
TTITLE9=Chris Brown - With You
TTITLE10=Ironik - Tiny Dancer (Hold Me Closer)  (feat Chipmunk and Elton
TTITLE10=John)
TTITLE11=T-Pain - Church (feat Teddy Verseti)
TTITLE12=R. Kelly - Your Body's Callin'
TTITLE13=Wiley - I Need To Be
TTITLE14=Jennifer Hudson - Spotlight
TTITLE15=Cassie - Me and U
TTITLE16=Sean "P. Diddy" Combs /After Love (feat Keri Hilson)
TTITLE17=P!nk - You Make Me Sick
TTITLE18=Sean Paul - Like Glue
TTITLE19=Puff Daddy - I'll Be Missing You
EXTD=
EXTT0=
EXTT1=
EXTT2=
EXTT3=
EXTT4=
EXTT5=
EXTT6=
EXTT7=
EXTT8=
EXTT9=
EXTT10=
EXTT11=
EXTT12=
EXTT13=
EXTT14=
EXTT15=
EXTT16=
EXTT17=
EXTT18=
EXTT19=
PLAYORDER=
